<?xml version="1.0" encoding="utf-8"?>
<!DOCTYPE svg PUBLIC "-//W3C//DTD SVG 1.1//EN" "http://www.w3.org/Graphics/SVG/1.1/DTD/svg11.dtd">
<svg version="1.1" xmlns="http://www.w3.org/2000/svg" xmlns:xlink="http://www.w3.org/1999/xlink" x="0px" y="0px"
  viewBox="0 0 256 256" enable-background="new 0 0 256 256" xml:space="preserve">
  <g>
    <g>
      <path fill="#000000"
        d="M243.1,68c-7.9-13.8-30.5-16.7-59-10.8c-16.7-13.8-37.4-22.6-61-22.6C72,34.6,29.7,76.9,29.7,128c0,5.9,1,12.8,2,18.7C13,168.3,5.2,188,13,200.8c7.9,14.7,33.4,16.7,64.9,8.8c13.8,6.9,28.5,11.8,45.2,11.8c50.1,0,91.4-40.3,93.4-90.5C240.1,106.4,251.9,82.8,243.1,68z M177.2,93.6c5.9,0,9.8,3.9,9.8,9.8c0,5.9-3.9,9.8-9.8,9.8c-5.9,0-9.8-3.9-9.8-9.8C167.4,97.5,171.3,93.6,177.2,93.6z M123.1,103.4c7.9,0,14.7,6.9,14.7,14.7c0,7.9-6.9,14.7-14.7,14.7c-7.9,0-14.7-6.9-14.7-14.7C108.4,110.3,115.3,103.4,123.1,103.4z M103.5,64.1c2.9,0,4.9,2,4.9,4.9c0,2.9-2,4.9-4.9,4.9s-4.9-2-4.9-4.9C98.5,66.1,100.5,64.1,103.5,64.1z M59.2,113.3c5.9,0,9.8,3.9,9.8,9.8c0,5.9-3.9,9.8-9.8,9.8c-5.9,0-9.8-3.9-9.8-9.8C49.4,117.2,53.3,113.3,59.2,113.3z M172.3,182.1c-4.9,0-9.8-2.9-12.8-6.9c8.8-4.9,16.7-10.8,24.6-16.7c2,2,2.9,5.9,2.9,8.8C187,175.2,180.1,182.1,172.3,182.1z M143.8,160.4c-60,34.4-107.1,39.3-114,26.5c-2.9-4.9,0-13.8,6.9-25.5c2.9,7.9,6.9,14.7,11.8,20.6c9.8-1,21.6-3.9,35.4-8.8c-2.9-2-4.9-5.9-4.9-10.8c0-10.8,8.8-19.7,19.7-19.7c9.8,0,17.7,6.9,19.7,16.7c4.9-2.9,9.8-5.9,15.7-8.8c37.4-21.6,62.9-45.2,73.7-62.9c-2.9-6.9-6.9-13.8-11.8-19.7c14.7-1,25.5,1,28.5,5.9C231.3,87.7,203.7,126,143.8,160.4z" />
    </g>
  </g>
</svg>