<svg width="1000" height="664" viewBox="0 0 1000 664" xmlns="http://www.w3.org/2000/svg" 
     xmlns:xlink="http://www.w3.org/1999/xlink">
    <style type="text/css">
        #a { animation: x .5s ease alternate infinite; }

        @keyframes x {
           from { fill: #000; }
             to { fill: #fff; }
        }
        svg {
            fill: #15a6c7;
        }
    </style>
    <defs>
        <rect id="start0" width="6" height="6" fill="#1ec6ec" />
        <rect id="start0b" width="6" height="6" fill="#fff" />

        <rect id="anthenaLight" width="6" height="6" fill="#d04747" />
        <rect id="window" width="12" height="6" fill="#004667" />

        <pattern id="windowPat1" x="0" y="0" width=".333" height=".25"><use xlink:href="#window" /></pattern>
        <pattern id="windowPat2" x="0" y="0" width=".25" height=".2"><use xlink:href="#window" /></pattern>
        
        <g id="sky">
            <use x="18" y="144" xlink:href="#start0" />

            <use x="72" y="204" xlink:href="#start0" />
            
            <use x="78" y="42" xlink:href="#start0" />
            
            <use x="138" y="30" xlink:href="#start0" />
            <use x="144" y="72" xlink:href="#start0" />
            <use x="150" y="30" xlink:href="#start0" />
            <use x="162" y="66" xlink:href="#start0b" />
            <use x="168" y="252" xlink:href="#start0" />
            <use x="174" y="24" xlink:href="#start0" />
            <use x="174" y="66" xlink:href="#start0" />
            <use x="198" y="150" xlink:href="#start0" />

            <use x="264" y="162" xlink:href="#start0" />
            <use x="282" y="150" xlink:href="#start0" />
            <use x="294" y="168" xlink:href="#start0" />

            <use x="468" y="164" xlink:href="#start0" />
            <use x="480" y="72" xlink:href="#start0" />
            <use x="480" y="174" xlink:href="#start0" />
            <use x="492" y="84" xlink:href="#start0" />

            <use x="582" y="24" xlink:href="#start0" />
            <use x="600" y="24" xlink:href="#start0" />
            <use x="600" y="60" xlink:href="#start0" />

            <use x="696" y="24" xlink:href="#start0b" />

            <use x="870" y="42" xlink:href="#start0" />

            <use x="954" y="108" xlink:href="#start0" />
        </g>

        <g id="buildings0base">
            <rect y="144" width="84" height="114" fill="#01283f" />
            <rect x="83" y="126" width="98" height="132" fill="#01283f" />
            <rect x="83" y="70" width="68" height="132" fill="#01283f" />
            <rect x="180" width="76" height="258" fill="#01283f" />
            <path d="M255 116 L316 116 L316 126 L338 126 L338 136 L346 136 L346 258 L255 258 Z" fill="#01283f" />
        </g>
        
        <g id="buildings0">
            <use x="0" y="20" xlink:href="#buildings0base" />
            <use x="186" y="14" xlink:href="#anthenaLight" />
            <rect x="240" width="6" height="22" fill="#01283f" />
            <use x="246" y="14" xlink:href="#anthenaLight" />
            <!-- <use x="186" y="36"  xlink:href="#window" /> -->
            <rect fill="url(#windowPat1)" x="88" y="110" width="58" height="72"/>
            <rect fill="url(#windowPat2)" x="186" y="36" width="72" height="90"/>
        </g>

        <rect id="river" width="1000" height="240" fill="#01283f" />

        <pattern id="bridgePart0" x="0" y="0" width=".2" height="1">
            <rect x="0" y="0" width="24" height="180" fill="#000" /> <!-- wider bar -->
            <rect x="54" y="0" width="12" height="138" fill="#000" />
            <rect x="100" y="0" width="12" height="138" fill="#000" />
            <rect x="152" y="0" width="12" height="138" fill="#000" />
            <rect x="198" y="0" width="12" height="138" fill="#000" />
            <rect x="244" y="0" width="12" height="138" fill="#000" />
        </pattern>

        <g id="bridgePart">    
            <rect x="0" y="0" width="20" height="180" fill="#000" />
            <rect x="60" y="0" width="10" height="152" fill="#000" />
            <rect x="100" y="0" width="10" height="152" fill="#000" />
            <rect x="140" y="0" width="10" height="152" fill="#000" />
            <rect x="180" y="0" width="10" height="152" fill="#000" />
            <rect x="220" y="0" width="10" height="152" fill="#000" />
        </g>
        
        <g id="bridge">
            <!-- top bar -->
            <rect x="0" y="0" width="1000" height="28" fill="#000" />
            
            <!-- vertical bars -->
            <rect fill="url(#bridgePart0)" stroke="black" x="-208" y="26" width="1440" height="180"/>

            <!-- bottom bar -->
            <rect x="0" y="164" width="1000" height="20" fill="#000" />

            <!-- floor -->
            <rect x="0" y="200" width="1000" height="26" fill="#000" />
        </g>

        <g id="lamppost">
            <path d="M100 0 L140 0 L140 4 L145 4 L145 12 L100 12 L100 18 L80 18 L80 22 L74 22 L74 26 L70 26 L70 512 L60 512 L60 26 L62 26 L62 22 L64 22 L64 18 L66 18 L66 16 L70 16 L70 12 L80 12 L80 8 L90 8 L90 4 L100 4 Z" fill="#000324" /> <!-- fill="#000324"-->
            <path id="a" d="M110 16 L140 16 L140 26 L136 26 L136 30 L110 30 Z" fill="#000" />
        </g>
    </defs>
    <rect x="0" y="0" width="1000" height="2" fill="#000" />
    <use xlink:href="#sky" />


    <use x="654" y="138" xlink:href="#buildings0" />

    <use x="0" y="414" xlink:href="#river" />

    <use x="0" y="428" xlink:href="#bridge" />

    <!-- <use x="-20" y="116" xlink:href="#lamppost" /> -->

</svg>