<svg width="1000" height="664" viewBox="0 0 1000 664" xmlns="http://www.w3.org/2000/svg" 
     xmlns:xlink="http://www.w3.org/1999/xlink">
    <style type="text/css">
        #a { animation: x .5s ease alternate infinite; }

        @keyframes x {
           from { fill: #000; }
             to { fill: #fff; }
        }
        svg {
            fill: #15a6c7;
        }
        #bridgePart rect {
            fill: #005373;
        }
    </style>
    <defs>
        <rect id="star0" width="6" height="6" fill="#1ec6ec" />
        <rect id="star0b" width="6" height="6" fill="#fff" />
        <g id="star1">
            <use x="6" xlink:href="#star0" />
            <use y="6" xlink:href="#star0" />
            <use x="12" y="6" xlink:href="#star0" />
            <use x="6" y="12" xlink:href="#star0" />
            <use x="6" y="6" xlink:href="#star0b" />
        </g>
        <g id="star2">
            <use x="12" xlink:href="#star0" />
            <use y="12" xlink:href="#star0" />
            <use x="24" y="12" xlink:href="#star0" />
            <use x="12" y="24" xlink:href="#star0" />
            <path d="M12 6 L18 6 L18 12 L24 12 L24 18 L18 18 L18 24 L12 24 L12 18 L6 18 L6 12 L12 12 Z" fill="white"/>
        </g>

        <rect id="anthenaLight" width="6" height="6" fill="#d04747" />

        <rect id="window" width="12" height="6" fill="#004667" />

        <pattern id="windowPat1" x="0" y="0" width=".333" height=".25"><use xlink:href="#window" /></pattern>
        <pattern id="windowPat2" x="0" y="0" width=".25" height=".2"><use xlink:href="#window" /></pattern>
        
        <g id="sky">
            <use x="18" y="144" xlink:href="#star0" />

            <use x="36" y="36" xlink:href="#star1" />

            <use x="72" y="204" xlink:href="#star0" />
            
            <use x="78" y="42" xlink:href="#star0" />
            
            <use x="138" y="30" xlink:href="#star0" />
            <use x="144" y="72" xlink:href="#star0" />
            <use x="150" y="30" xlink:href="#star0" />
            <use x="162" y="66" xlink:href="#star0b" />
            <use x="168" y="252" xlink:href="#star0" />
            <use x="174" y="24" xlink:href="#star0" />
            <use x="174" y="66" xlink:href="#star0" />

            <use x="180" y="180" xlink:href="#star1" />

            <use x="198" y="150" xlink:href="#star0" />

            <use x="222" y="72" xlink:href="#star1" />

            <use x="264" y="162" xlink:href="#star0" />
            <use x="282" y="150" xlink:href="#star0" />
            <use x="294" y="168" xlink:href="#star0" />

            <use x="324" y="78" xlink:href="#star1" />

            <use x="468" y="164" xlink:href="#star0" />
            <use x="480" y="72" xlink:href="#star0" />
            <use x="480" y="174" xlink:href="#star0" />
            <use x="492" y="84" xlink:href="#star0" />

            <use x="582" y="24" xlink:href="#star0" />
            <use x="600" y="24" xlink:href="#star0" />
            <use x="600" y="60" xlink:href="#star0" />

            <use x="624" y="78" xlink:href="#star2" />

            <use x="696" y="24" xlink:href="#star0b" />

            <use x="870" y="42" xlink:href="#star0" />

            <use x="954" y="108" xlink:href="#star0" />
        </g>

        <g id="buildings0base">
            <rect y="144" width="84" height="114" fill="#01283f" />
            <rect x="83" y="126" width="98" height="132" fill="#01283f" />
            <rect x="83" y="70" width="68" height="132" fill="#01283f" />
            <rect x="180" width="76" height="258" fill="#01283f" />
            <path d="M255 116 L316 116 L316 126 L338 126 L338 136 L346 136 L346 258 L255 258 Z" fill="#01283f" />
        </g>
        <g id="building0Details">
            <use x="186" y="14" xlink:href="#anthenaLight" />
            <rect x="240" width="6" height="22" fill="#01283f" />
            <use x="246" y="14" xlink:href="#anthenaLight" />
            <!-- <use x="186" y="36"  xlink:href="#window" /> -->
            <rect fill="url(#windowPat1)" x="88" y="110" width="58" height="72"/>
            <rect fill="url(#windowPat2)" x="186" y="36" width="72" height="90"/>
        </g>

        <g id="buildings0">
            <rect y="230" width="598" height="48" fill="#01283f" />
            <use x="252" y="20" xlink:href="#buildings0base" />
            <use x="252" y="0" xlink:href="#building0Details" />
        </g>

        <rect id="pierLight" width="6" height="12" fill="#004667" />

        <g id="pierLightsV">
            <use xlink:href="#pierLight" />
            <use x="30" xlink:href="#pierLight" />
            <use x="78" xlink:href="#pierLight" />
            <use x="108" xlink:href="#pierLight" />
            <use x="148" xlink:href="#pierLight" />
            <use x="192" xlink:href="#pierLight" />
            <use x="240" xlink:href="#pierLight" />
            <use x="290" xlink:href="#pierLight" />
            <use x="348" xlink:href="#pierLight" />
            <use x="402" xlink:href="#pierLight" />
        </g>
        <g id="pierLightsH">
            <rect width="6" height="6" fill="#004667" />
            <rect x="12" width="12" height="6" fill="#004667" />
            <rect x="30" width="18" height="6" fill="#004667" />
            <rect x="54" width="24" height="6" fill="#004667" />
            <rect x="84" width="72" height="6" fill="#004667" />
            <rect x="162" width="108" height="6" fill="#004667" />
            <rect x="276" width="60" height="6" fill="#004667" />
            <rect x="342" width="102" height="6" fill="#004667" />
            <rect x="450" width="28" height="6" fill="#004667" />
        </g>
        <g id="pier">
            <!-- <rect width="598" height="48" fill="#01283f" /> -->
            <use x="162" y="22" xlink:href="#pierLightsV" />
            <use x="120" y="40" xlink:href="#pierLightsH" />
        </g>

        <g id="bridgePart">
            <!-- floor -->
            <rect y="50" width="146" height="18" /> 
            
            <!-- tiny bars -->
            <rect x="12" y="16" width="6" height="34" />
            <rect x="36" y="28" width="6" height="22" />
            <rect x="60" y="28" width="6" height="22" />
            <rect x="84" y="28" width="6" height="22" />
            <rect x="108" y="28" width="6" height="22" />
            <rect x="132" y="16" width="6" height="34" />

            <rect y="9" width="12" height="6" />
            <rect x="6" y="14" width="12" height="6" />
            <rect x="12" y="19" width="18" height="6" />
            <rect x="30" y="24" width="84" height="6" />
            <rect x="108" y="19" width="18" height="6" />
            <rect x="126" y="14" width="12" height="6" />
            <rect x="132" y="9" width="13" height="6" />

            <!-- main bar -->
            <rect x="144" width="18" height="105" />
        </g>

        <g id="bridge">
            <use x="480" xlink:href="#bridgePart" />
            <use x="320" xlink:href="#bridgePart" />
            <use x="160" xlink:href="#bridgePart" />
            <use x="0" xlink:href="#bridgePart" />
        </g>

        <rect id="river" width="1000" height="240" fill="#01283f" />

        <pattern id="railingPart0" x="0" y="0" width=".2" height="1">
            <rect x="0" y="0" width="24" height="180" fill="#000" /> <!-- wider bar -->
            <rect x="54" y="0" width="12" height="138" fill="#000" />
            <rect x="100" y="0" width="12" height="138" fill="#000" />
            <rect x="152" y="0" width="12" height="138" fill="#000" />
            <rect x="198" y="0" width="12" height="138" fill="#000" />
            <rect x="244" y="0" width="12" height="138" fill="#000" />
        </pattern>

        <g id="railingPart">    
            <rect x="0" y="0" width="20" height="180" fill="#000" />
            <rect x="60" y="0" width="10" height="152" fill="#000" />
            <rect x="100" y="0" width="10" height="152" fill="#000" />
            <rect x="140" y="0" width="10" height="152" fill="#000" />
            <rect x="180" y="0" width="10" height="152" fill="#000" />
            <rect x="220" y="0" width="10" height="152" fill="#000" />
        </g>
        
        <g id="railing">
            <!-- top bar -->
            <rect x="0" y="0" width="1000" height="28" fill="#000" />
            
            <!-- vertical bars -->
            <rect fill="url(#railingPart0)" stroke="black" x="-208" y="26" width="1440" height="180"/>

            <!-- bottom bar -->
            <rect x="0" y="164" width="1000" height="20" fill="#000" />

            <!-- floor -->
            <rect x="0" y="200" width="1000" height="26" fill="#000" />
        </g>

        <g id="lamppost">
            <path d="M100 0 L140 0 L140 4 L145 4 L145 12 L100 12 L100 18 L80 18 L80 22 L74 22 L74 26 L70 26 L70 512 L60 512 L60 26 L62 26 L62 22 L64 22 L64 18 L66 18 L66 16 L70 16 L70 12 L80 12 L80 8 L90 8 L90 4 L100 4 Z" fill="#000324" /> <!-- fill="#000324"-->
            <path id="a" d="M110 16 L140 16 L140 26 L136 26 L136 30 L110 30 Z" fill="#000" />
        </g>
    </defs>
    
    <use xlink:href="#sky" />

    <use x="402" y="138" xlink:href="#buildings0" />

    <use x="0" y="310" xlink:href="#bridge" />
    <use x="0" y="414" xlink:href="#river" />
    <use x="402" y="368" xlink:href="#pier" />

    

    <use x="0" y="428" xlink:href="#railing" />

    <!-- <use x="-20" y="116" xlink:href="#lamppost" /> -->

</svg>